<svg xmlns="http://www.w3.org/2000/svg" viewBox="0 0 1024 1024">
  <defs>
    <linearGradient id="grad1" x1="0%" y1="0%" x2="100%" y2="100%">
      <stop offset="0%" style="stop-color:#0052D9;stop-opacity:1" />
      <stop offset="100%" style="stop-color:#65C7F7;stop-opacity:1" />
    </linearGradient>
    <linearGradient id="grad2" x1="30%" y1="30%" x2="70%" y2="70%">
      <stop offset="0%" style="stop-color:#1A73E8;stop-opacity:1" />
      <stop offset="100%" style="stop-color:#4285F4;stop-opacity:1" />
    </linearGradient>
  </defs>
  
  <rect width="1024" height="1024" rx="192" fill="url(#grad1)"/>
  
  <path d="M512 192a320 320 0 1 1 0 640 320 320 0 0 1 0-640zm0 64a256 256 0 1 0 0 512 256 256 0 0 0 0-512z" 
        fill="#FFF" fill-opacity="0.9"/>
  
  <circle cx="512" cy="512" r="128" fill="url(#grad2)"/>
  
  <path d="M704 512a192 192 0 0 1-192 192v-64a128 128 0 0 0 0-256v-64a192 192 0 0 1 192 192z" 
        fill="#FFF" fill-opacity="0.85"/>
</svg>