<svg xmlns="http://www.w3.org/2000/svg" viewBox="0 0 1024 1024">
  <defs>
    <linearGradient id="gradient" x1="0%" y1="0%" x2="100%" y2="100%">
      <stop offset="0%" stop-color="#00C9A7"/>
      <stop offset="100%" stop-color="#008B74"/>
    </linearGradient>
  </defs>
  
  <!-- 背景圆 -->
  <circle cx="512" cy="512" r="486" fill="#2D3748" opacity="0.9"/>
  
  <!-- 主体图形 -->
  <path d="M512 200c-12,0-24,4-34,12L280 380c-20,16-24,44-8,64 16,20 44,24 64,8l162-130 162 130c20,16 48,12 64-8 16-20 12-48-8-64L546 212c-10-8-22-12-34-12z" 
        fill="url(#gradient)"/>
  
  <path d="M512 824c12,0 24-4 34-12l198-168c20-16 24-44 8-64-16-20-44-24-64-8L512 692 350 562c-20-16-48-12-64,8-16,20-12,48,8,64l198 168c10,8 22,12 34,12z" 
        fill="url(#gradient)"/>
  
  <!-- 科技线条 -->
  <path d="M380 512c0-6 4-10 10-10h244c6,0 10,4 10,10 0,6-4,10-10,10H390c-6,0-10-4-10-10z" 
        fill="#FFFFFF"/>
  
  <circle cx="512" cy="512" r="60" fill="#2D3748" stroke="#FFFFFF" stroke-width="16"/>
  <circle cx="512" cy="512" r="30" fill="#FFFFFF"/>
</svg>