<svg xmlns="http://www.w3.org/2000/svg" viewBox="0 0 1024 1024">
  <defs>
    <linearGradient id="grad1" x1="0%" y1="0%" x2="100%" y2="100%">
      <stop offset="0%" stop-color="#48c6ef" />
      <stop offset="100%" stop-color="#6f86d6" />
    </linearGradient>
    <linearGradient id="grad2" x1="30%" y1="70%" x2="100%" y2="30%">
      <stop offset="0%" stop-color="#f5d020" />
      <stop offset="100%" stop-color="#f53803" />
    </linearGradient>
  </defs>
  
  <rect width="1024" height="1024" rx="192" fill="url(#grad1)"/>
  
  <path d="M512 256c-28.672 0-56.32 5.632-82.432 16.768-25.6 10.752-48.64 26.112-68.608 45.568-19.968 19.456-35.84 42.496-46.592 68.096C304 412.16 298.24 439.808 298.24 468.48c0 28.672 5.76 56.32 16.768 82.432 10.752 25.6 26.112 48.64 45.568 68.608 19.456 19.968 42.496 35.84 68.096 46.592 26.112 11.008 53.76 16.768 82.432 16.768s56.32-5.76 82.432-16.768c25.6-10.752 48.64-26.112 68.608-45.568 19.968-19.456 35.84-42.496 46.592-68.096 11.008-26.112 16.768-53.76 16.768-82.432 0-28.672-5.76-56.32-16.768-82.432-10.752-25.6-26.112-48.64-45.568-68.608-19.456-19.968-42.496-35.84-68.096-46.592C568.32 261.632 540.672 256 512 256zm0 384c-17.408 0-34.304-3.584-50.176-10.24-15.36-6.656-29.184-16.384-40.96-28.16-11.776-11.776-21.504-25.6-28.16-40.96-6.656-15.872-10.24-32.768-10.24-50.176 0-17.408 3.584-34.304 10.24-50.176 6.656-15.36 16.384-29.184 28.16-40.96 11.776-11.776 25.6-21.504 40.96-28.16 15.872-6.656 32.768-10.24 50.176-10.24s34.304 3.584 50.176 10.24c15.36 6.656 29.184 16.384 40.96 28.16 11.776 11.776 21.504 25.6 28.16 40.96 6.656 15.872 10.24 32.768 10.24 50.176 0 17.408-3.584 34.304-10.24 50.176-6.656 15.36-16.384 29.184-28.16 40.96-11.776 11.776-25.6 21.504-40.96 28.16C546.304 636.416 529.408 640 512 640z" 
        fill="none" 
        stroke="url(#grad2)" 
        stroke-width="32" 
        stroke-linecap="round"/>
  
  <path d="M416 416l192 192m0-192l-192 192" 
        stroke="#fff" 
        stroke-width="48" 
        stroke-linecap="round" 
        opacity="0.8"/>
  
  <circle cx="512" cy="512" r="128" fill="none" stroke="#fff" stroke-width="16" opacity="0.6"/>
</svg>