<svg xmlns="http://www.w3.org/2000/svg" viewBox="0 0 1024 1024">
  <defs>
    <linearGradient id="grad1" x1="0%" y1="0%" x2="100%" y2="100%">
      <stop offset="0%" stop-color="#5a5a5a" />
      <stop offset="100%" stop-color="#a8a8a8" />
    </linearGradient>
    <linearGradient id="grad2" x1="50%" y1="0%" x2="50%" y2="100%">
      <stop offset="0%" stop-color="#d1d1d1" />
      <stop offset="100%" stop-color="#ffffff" />
    </linearGradient>
    <filter id="glow" x="-20%" y="-20%" width="140%" height="140%">
      <feGaussianBlur stdDeviation="8" result="blur" />
      <feComposite in="SourceGraphic" in2="blur" operator="over" />
    </filter>
  </defs>
  
  <rect width="1024" height="1024" rx="240" fill="url(#grad1)" />
  
  <g transform="translate(512, 512)">
    <!-- 主风旋元素 -->
    <path d="M0,-200 
             C80,-180 120,-100 120,0 
             C120,100 80,180 0,200 
             C-80,180 -120,100 -120,0 
             C-120,-100 -80,-180 0,-200Z" 
          fill="none" 
          stroke="url(#grad2)" 
          stroke-width="24" 
          stroke-linecap="round" 
          transform="rotate(15)" />
    
    <!-- 次风旋元素 -->
    <path d="M0,-150 
             C60,-135 90,-75 90,0 
             C90,75 60,135 0,150 
             C-60,135 -90,75 -90,0 
             C-90,-75 -60,-135 0,-150Z" 
          fill="none" 
          stroke="#e0e0e0" 
          stroke-width="18" 
          stroke-linecap="round" 
          transform="rotate(-10)" />
    
    <!-- 核心光点 -->
    <circle cx="0" cy="0" r="40" fill="#ffffff" filter="url(#glow)" />
    <circle cx="0" cy="0" r="24" fill="#f0f0f0" />
  </g>
</svg>