<svg xmlns="http://www.w3.org/2000/svg" viewBox="0 0 1024 1024">
  <defs>
    <linearGradient id="grad1" x1="0%" y1="0%" x2="100%" y2="100%">
      <stop offset="0%" stop-color="#4facfe"/>
      <stop offset="100%" stop-color="#00f2fe"/>
    </linearGradient>
    <linearGradient id="grad2" x1="0%" y1="0%" x2="100%" y2="100%">
      <stop offset="0%" stop-color="#a1c4fd"/>
      <stop offset="100%" stop-color="#c2e9fb"/>
    </linearGradient>
  </defs>
  
  <rect width="1024" height="1024" rx="192" fill="url(#grad1)"/>
  
  <path d="M512 256c-141.4 0-256 114.6-256 256s114.6 256 256 256 256-114.6 256-256-114.6-256-256-256zm0 448c-106 0-192-86-192-192s86-192 192-192 192 86 192 192-86 192-192 192z" 
        fill="none" stroke="white" stroke-width="32"/>
  
  <path d="M512 320c-106 0-192 86-192 192s86 192 192 192 192-86 192-192-86-192-192-192zm0 320c-70.7 0-128-57.3-128-128s57.3-128 128-128 128 57.3 128 128-57.3 128-128 128z" 
        fill="none" stroke="url(#grad2)" stroke-width="32"/>
  
  <path d="M512 384c-70.7 0-128 57.3-128 128s57.3 128 128 128 128-57.3 128-128-57.3-128-128-128zm0 192c-35.3 0-64-28.7-64-64s28.7-64 64-64 64 28.7 64 64-28.7 64-64 64z" 
        fill="none" stroke="white" stroke-width="32"/>
  
  <path d="M512 448c-35.3 0-64 28.7-64 64s28.7 64 64 64 64-28.7 64-64-28.7-64-64-64z" 
        fill="white" opacity="0.8"/>
</svg>