<svg xmlns="http://www.w3.org/2000/svg" viewBox="0 0 1024 1024">
  <defs>
    <linearGradient id="windGradient" x1="50%" y1="0%" x2="50%" y2="100%">
      <stop offset="0%" stop-color="#333333"/>
      <stop offset="50%" stop-color="#999999"/>
      <stop offset="100%" stop-color="#CCCCCC"/>
    </linearGradient>
    <linearGradient id="bgGradient" x1="0%" y1="0%" x2="100%" y2="100%">
      <stop offset="0%" stop-color="#F5F5F5"/>
      <stop offset="100%" stop-color="#E0E0E0"/>
    </linearGradient>
  </defs>
  
  <rect width="1024" height="1024" rx="192" fill="url(#bgGradient)"/>
  
  <g transform="translate(512 512) scale(2.5)">
    <path d="M0,-80 
             C45,-80 80,-45 80,0
             C80,45 45,80 0,80
             C-45,80 -80,45 -80,0
             C-80,-45 -45,-80 0,-80
             Z" 
          fill="none" 
          stroke="url(#windGradient)" 
          stroke-width="12" 
          stroke-linecap="round"/>
    
    <path d="M0,-60 
             C30,-60 60,-30 60,0
             C60,30 30,60 0,60
             C-30,60 -60,30 -60,0
             C-60,-30 -30,-60 0,-60
             Z" 
          fill="none" 
          stroke="url(#windGradient)" 
          stroke-width="12" 
          stroke-linecap="round"
          transform="rotate(120)"/>
    
    <path d="M0,-40 
             C15,-40 40,-15 40,0
             C40,15 15,40 0,40
             C-15,40 -40,15 -40,0
             C-40,-15 -15,-40 0,-40
             Z" 
          fill="none" 
          stroke="url(#windGradient)" 
          stroke-width="12" 
          stroke-linecap="round"
          transform="rotate(240)"/>
  </g>
</svg>